<?xml version="1.0" encoding="UTF-8"?>
<svg xmlns="http://www.w3.org/2000/svg" width="1920" height="300" viewBox="0 0 1920 300">
  <defs>
    <linearGradient id="bar" x1="0" y1="0" x2="0" y2="1">
      <stop offset="0" stop-color="#F2F2F2"/>
      <stop offset="0.25" stop-color="#E6E6E6"/>
      <stop offset="1" stop-color="#D9D9D9"/>
    </linearGradient>
    <linearGradient id="edge" x1="0" y1="0" x2="0" y2="1">
      <stop offset="0" stop-color="#9FDDFB"/>
      <stop offset="1" stop-color="#4FB8F4"/>
    </linearGradient>
  </defs>
  <path d="M0,24 L480,24 C640,24 700,118 960,118 C1220,118 1280,24 1440,24 L1920,24 L1920,300 L0,300 Z" fill="url(#bar)"/>
  <path d="M0,24 L480,24 C640,24 700,118 960,118 C1220,118 1280,24 1440,24 L1920,24" fill="none" stroke="url(#edge)" stroke-width="9" stroke-linecap="round"/>
  <path d="M0,24 L480,24 C640,24 700,118 960,118 C1220,118 1280,24 1440,24 L1920,24" fill="none" stroke="#FFFFFF" stroke-opacity="0.75" stroke-width="2" transform="translate(0,7)"/>
</svg>
